<?xml version="1.0" standalone="no"?>
<!DOCTYPE svg PUBLIC "-//W3C//DTD SVG 20010904//EN"
 "http://www.w3.org/TR/2001/REC-SVG-20010904/DTD/svg10.dtd">
<svg version="1.0" xmlns="http://www.w3.org/2000/svg"
 width="450.000000pt" height="450.000000pt" viewBox="0 0 450.000000 450.000000"
 preserveAspectRatio="xMidYMid meet">
<metadata>
Created by potrace 1.14, written by Peter Selinger 2001-2017
</metadata>
<g transform="translate(0.000000,450.000000) scale(0.100000,-0.100000)"
fill="#000000" stroke="none">
<path d="M1490 3472 c0 -4 5 -13 12 -20 9 -9 -5 -12 -65 -12 -45 0 -77 -4 -77
-10 0 -5 16 -10 35 -10 24 0 35 -5 35 -15 0 -17 -30 -35 -59 -35 -45 0 -18
-19 31 -22 41 -2 52 -7 54 -22 3 -19 -16 -19 -146 0 l-35 5 28 -25 c16 -15 33
-24 38 -21 5 4 9 -12 9 -34 0 -30 5 -43 20 -51 11 -6 20 -15 20 -19 0 -5 -9
-11 -20 -14 -35 -9 -21 -24 29 -31 44 -6 69 -24 54 -40 -4 -3 -28 -6 -54 -6
l-47 0 -7 -114 c-11 -174 -2 -520 13 -539 10 -12 10 -16 0 -19 -10 -4 -13 -56
-13 -236 l0 -232 25 -1 25 0 -25 -10 c-23 -10 -24 -11 -6 -21 14 -8 15 -12 6
-18 -8 -5 -2 -10 19 -15 32 -7 34 -25 1 -25 -13 0 -17 -5 -13 -20 4 -15 0 -20
-13 -20 -15 0 -15 -3 6 -25 13 -14 29 -25 37 -25 7 0 13 -7 13 -16 0 -10 -6
-14 -14 -11 -21 8 -50 -17 -43 -37 5 -11 1 -16 -12 -16 -22 0 -22 -27 0 -41
11 -7 10 -9 -6 -10 -11 0 -15 -3 -9 -5 6 -2 9 -17 6 -33 -6 -45 14 -45 32 -1
20 51 36 51 36 -1 0 -32 -4 -42 -19 -46 -16 -4 -19 -13 -18 -46 2 -42 2 -42
-42 -53 -41 -9 -45 -13 -46 -42 -1 -27 2 -32 22 -32 13 0 23 -4 23 -9 0 -5 10
-11 22 -15 18 -4 20 -8 10 -18 -6 -6 -12 -20 -12 -29 0 -10 -7 -24 -15 -32
-11 -12 -12 -17 -2 -25 9 -8 11 -33 6 -94 -3 -46 -4 -86 -2 -90 5 -10 306 -10
431 -2 l90 7 4 36 c1 20 2 86 0 147 -3 101 -5 112 -23 117 -22 6 -38 39 -21
45 7 2 12 10 12 18 0 8 9 14 20 14 19 0 20 7 20 90 0 54 -4 90 -10 90 -6 0
-10 22 -8 53 1 28 -2 67 -7 85 -7 29 -5 34 14 39 16 4 21 13 21 39 0 32 -2 34
-37 35 -28 1 -31 3 -13 6 14 3 33 13 43 24 17 19 16 19 -35 19 -51 1 -52 1
-28 15 14 8 21 14 16 15 -5 0 -2 8 6 18 8 9 14 29 13 44 l-2 27 480 3 c373 2
481 6 485 16 2 6 15 12 28 12 18 0 24 5 24 23 0 44 12 49 89 41 48 -4 71 -3
71 4 0 6 -10 12 -22 14 -14 2 -25 14 -33 37 -6 19 -20 38 -31 42 -17 7 -17 8
4 8 22 1 22 3 22 141 l0 140 -495 0 -496 0 -25 25 c-14 14 -36 25 -49 25 -16
0 -25 6 -25 15 0 8 5 15 11 15 6 0 9 7 5 15 -3 9 0 15 9 15 11 0 12 5 5 25 -9
24 -8 25 25 20 19 -2 35 0 35 5 0 6 -23 10 -51 10 l-52 0 7 50 c4 32 3 50 -4
50 -5 0 -10 4 -10 9 0 6 21 12 48 14 l47 3 -47 2 c-50 2 -68 22 -20 23 26 0
26 1 5 11 -30 15 -34 31 -22 87 l10 48 97 6 c53 4 310 7 570 7 l472 0 0 29 0
28 -102 6 c-57 4 -335 9 -618 13 -283 3 -540 10 -570 15 -54 8 131 7 984 -8
286 -4 387 -3 382 5 -4 6 -19 9 -34 6 -23 -5 -28 -2 -29 16 -2 21 -1 21 18 5
18 -17 19 -17 19 -1 0 10 -5 14 -11 10 -7 -4 -10 0 -7 11 1 10 11 19 21 21 22
3 33 12 25 20 -4 3 -21 1 -40 -4 l-33 -9 0 56 0 56 -35 6 -35 6 39 2 c35 1 38
3 32 24 -3 12 -6 25 -6 30 0 4 -7 7 -15 7 -8 0 -15 4 -15 10 0 5 3 9 8 9 21
-4 28 3 26 24 -1 12 -3 27 -3 32 -1 7 -115 11 -349 10 -242 0 -353 3 -363 11
-17 13 -809 29 -809 16z m63 -159 c-13 -2 -35 -2 -50 0 -16 2 -5 4 22 4 28 0
40 -2 28 -4z m-163 -1223 c0 -5 -2 -10 -4 -10 -3 0 -8 5 -11 10 -3 6 -1 10 4
10 6 0 11 -4 11 -10z m139 -86 c13 -9 53 -25 90 -35 l66 -17 -85 -1 c-85 -1
-85 -1 -117 34 l-32 35 27 0 c15 0 38 -7 51 -16z m141 -172 c78 -13 17 -23
-93 -16 -93 7 -97 8 -71 20 28 13 64 12 164 -4z m-187 -209 c-13 -2 -33 -2
-45 0 -13 2 -3 4 22 4 25 0 35 -2 23 -4z m-78 -283 c3 -5 2 -10 -4 -10 -5 0
-13 5 -16 10 -3 6 -2 10 4 10 5 0 13 -4 16 -10z"/>
<path d="M3065 3230 c-8 -13 5 -13 25 0 13 8 13 10 -2 10 -9 0 -20 -4 -23 -10z"/>
<path d="M1910 2859 c0 -5 23 -9 52 -9 28 0 49 2 47 4 -9 8 -99 13 -99 5z"/>
<path d="M1913 2783 c9 -2 23 -2 30 0 6 3 -1 5 -18 5 -16 0 -22 -2 -12 -5z"/>
</g>
</svg>
